<mxfile host="Electron" modified="2024-07-15T19:55:22.940Z" agent="Mozilla/5.0 (Windows NT 10.0; Win64; x64) AppleWebKit/537.36 (KHTML, like Gecko) draw.io/24.5.3 Chrome/124.0.6367.207 Electron/30.0.6 Safari/537.36" etag="gpKp9aCPqw0_EIRgGqo4" version="24.5.3" type="device" pages="6">
  <diagram id="lcBmxC1OZ9RnwGIYcbc6" name="view_disks">
    <mxGraphModel dx="500" dy="300" grid="1" gridSize="10" guides="1" tooltips="1" connect="1" arrows="1" fold="1" page="1" pageScale="1" pageWidth="827" pageHeight="1169" math="0" shadow="0">
      <root>
        <mxCell id="0" />
        <mxCell id="1" parent="0" />
        <mxCell id="nMfTh-Ee7o47FuTwSf6J-1" value="Interfaz" style="rounded=0;whiteSpace=wrap;html=1;" parent="1" vertex="1">
          <mxGeometry x="79" y="30" width="100" height="40" as="geometry" />
        </mxCell>
        <mxCell id="nMfTh-Ee7o47FuTwSf6J-2" value="" style="endArrow=none;dashed=1;html=1;dashPattern=1 3;strokeWidth=2;rounded=0;entryX=0.5;entryY=1;entryDx=0;entryDy=0;exitX=0.5;exitY=0;exitDx=0;exitDy=0;" parent="1" source="nMfTh-Ee7o47FuTwSf6J-9" target="nMfTh-Ee7o47FuTwSf6J-1" edge="1">
          <mxGeometry width="50" height="50" relative="1" as="geometry">
            <mxPoint x="129" y="120" as="sourcePoint" />
            <mxPoint x="128.3" y="80" as="targetPoint" />
          </mxGeometry>
        </mxCell>
        <mxCell id="nMfTh-Ee7o47FuTwSf6J-3" value="API Rest" style="rounded=0;whiteSpace=wrap;html=1;" parent="1" vertex="1">
          <mxGeometry x="280" y="30" width="100" height="40" as="geometry" />
        </mxCell>
        <mxCell id="nMfTh-Ee7o47FuTwSf6J-4" value="" style="endArrow=none;dashed=1;html=1;dashPattern=1 3;strokeWidth=2;rounded=0;exitX=0.5;exitY=0;exitDx=0;exitDy=0;" parent="1" source="nMfTh-Ee7o47FuTwSf6J-13" target="nMfTh-Ee7o47FuTwSf6J-3" edge="1">
          <mxGeometry width="50" height="50" relative="1" as="geometry">
            <mxPoint x="330" y="120" as="sourcePoint" />
            <mxPoint x="329.29999999999995" y="80" as="targetPoint" />
          </mxGeometry>
        </mxCell>
        <mxCell id="nMfTh-Ee7o47FuTwSf6J-5" value="Base de datos" style="rounded=0;whiteSpace=wrap;html=1;" parent="1" vertex="1">
          <mxGeometry x="500" y="30" width="100" height="40" as="geometry" />
        </mxCell>
        <mxCell id="nMfTh-Ee7o47FuTwSf6J-6" value="" style="endArrow=none;dashed=1;html=1;dashPattern=1 3;strokeWidth=2;rounded=0;exitX=0.5;exitY=0;exitDx=0;exitDy=0;" parent="1" source="nMfTh-Ee7o47FuTwSf6J-22" target="nMfTh-Ee7o47FuTwSf6J-5" edge="1">
          <mxGeometry width="50" height="50" relative="1" as="geometry">
            <mxPoint x="550.0000000000002" y="140" as="sourcePoint" />
            <mxPoint x="549.3" y="80" as="targetPoint" />
          </mxGeometry>
        </mxCell>
        <mxCell id="nMfTh-Ee7o47FuTwSf6J-8" style="edgeStyle=orthogonalEdgeStyle;rounded=0;orthogonalLoop=1;jettySize=auto;html=1;dashed=1;dashPattern=1 3;strokeColor=default;strokeWidth=2;align=center;verticalAlign=middle;fontFamily=Helvetica;fontSize=11;fontColor=default;labelBackgroundColor=default;endArrow=none;endFill=0;curved=0;" parent="1" source="nMfTh-Ee7o47FuTwSf6J-9" edge="1">
          <mxGeometry relative="1" as="geometry">
            <mxPoint x="129" y="200" as="targetPoint" />
          </mxGeometry>
        </mxCell>
        <mxCell id="yTlMnO8tKe960a-O8kUR-1" value="Solicitud de ver los discos" style="edgeStyle=orthogonalEdgeStyle;rounded=0;orthogonalLoop=1;jettySize=auto;html=1;entryX=0;entryY=0;entryDx=0;entryDy=0;verticalAlign=bottom;" parent="1" target="nMfTh-Ee7o47FuTwSf6J-13" edge="1">
          <mxGeometry relative="1" as="geometry">
            <mxPoint x="140" y="97" as="sourcePoint" />
            <Array as="points">
              <mxPoint x="280" y="97" />
              <mxPoint x="280" y="97" />
            </Array>
          </mxGeometry>
        </mxCell>
        <mxCell id="nMfTh-Ee7o47FuTwSf6J-9" value="" style="rounded=0;whiteSpace=wrap;html=1;" parent="1" vertex="1">
          <mxGeometry x="122" y="97" width="14" height="73" as="geometry" />
        </mxCell>
        <mxCell id="nMfTh-Ee7o47FuTwSf6J-10" value="Obtener todos los discos" style="edgeStyle=orthogonalEdgeStyle;rounded=0;orthogonalLoop=1;jettySize=auto;html=1;entryX=0;entryY=0;entryDx=0;entryDy=0;verticalAlign=bottom;exitX=0.976;exitY=0.183;exitDx=0;exitDy=0;exitPerimeter=0;" parent="1" source="nMfTh-Ee7o47FuTwSf6J-13" target="nMfTh-Ee7o47FuTwSf6J-22" edge="1">
          <mxGeometry relative="1" as="geometry">
            <Array as="points">
              <mxPoint x="338" y="110" />
              <mxPoint x="543" y="110" />
            </Array>
            <mxPoint x="337" y="162" as="sourcePoint" />
            <mxPoint x="542" y="175" as="targetPoint" />
          </mxGeometry>
        </mxCell>
        <mxCell id="nMfTh-Ee7o47FuTwSf6J-12" style="edgeStyle=orthogonalEdgeStyle;rounded=0;orthogonalLoop=1;jettySize=auto;html=1;dashed=1;dashPattern=1 3;strokeColor=default;strokeWidth=2;align=center;verticalAlign=middle;fontFamily=Helvetica;fontSize=11;fontColor=default;labelBackgroundColor=default;endArrow=none;endFill=0;curved=0;" parent="1" source="nMfTh-Ee7o47FuTwSf6J-13" edge="1">
          <mxGeometry relative="1" as="geometry">
            <mxPoint x="330" y="200" as="targetPoint" />
          </mxGeometry>
        </mxCell>
        <mxCell id="nMfTh-Ee7o47FuTwSf6J-25" value="Muestra datos por pantalla" style="edgeStyle=orthogonalEdgeStyle;rounded=0;orthogonalLoop=1;jettySize=auto;html=1;entryX=1;entryY=1;entryDx=0;entryDy=0;exitX=0;exitY=1;exitDx=0;exitDy=0;verticalAlign=bottom;" parent="1" source="nMfTh-Ee7o47FuTwSf6J-13" target="nMfTh-Ee7o47FuTwSf6J-9" edge="1">
          <mxGeometry relative="1" as="geometry">
            <Array as="points">
              <mxPoint x="136" y="170" />
            </Array>
          </mxGeometry>
        </mxCell>
        <mxCell id="nMfTh-Ee7o47FuTwSf6J-13" value="" style="rounded=0;whiteSpace=wrap;html=1;" parent="1" vertex="1">
          <mxGeometry x="323" y="97" width="14" height="73" as="geometry" />
        </mxCell>
        <mxCell id="nMfTh-Ee7o47FuTwSf6J-18" value="Devuelve informaciÃ³n" style="edgeStyle=orthogonalEdgeStyle;rounded=0;orthogonalLoop=1;jettySize=auto;html=1;verticalAlign=bottom;exitX=0;exitY=1;exitDx=0;exitDy=0;dashed=1;dashPattern=8 8;entryX=1.025;entryY=0.588;entryDx=0;entryDy=0;entryPerimeter=0;" parent="1" source="nMfTh-Ee7o47FuTwSf6J-22" target="nMfTh-Ee7o47FuTwSf6J-13" edge="1">
          <mxGeometry relative="1" as="geometry">
            <Array as="points">
              <mxPoint x="337" y="139" />
            </Array>
            <mxPoint x="337" y="206" as="targetPoint" />
            <mxPoint x="542" y="206" as="sourcePoint" />
          </mxGeometry>
        </mxCell>
        <mxCell id="nMfTh-Ee7o47FuTwSf6J-21" style="edgeStyle=orthogonalEdgeStyle;rounded=0;orthogonalLoop=1;jettySize=auto;html=1;dashed=1;dashPattern=1 3;strokeColor=default;strokeWidth=2;align=center;verticalAlign=middle;fontFamily=Helvetica;fontSize=11;fontColor=default;labelBackgroundColor=default;endArrow=none;endFill=0;curved=0;" parent="1" source="nMfTh-Ee7o47FuTwSf6J-22" edge="1">
          <mxGeometry relative="1" as="geometry">
            <mxPoint x="550" y="200" as="targetPoint" />
          </mxGeometry>
        </mxCell>
        <mxCell id="nMfTh-Ee7o47FuTwSf6J-22" value="" style="rounded=0;whiteSpace=wrap;html=1;" parent="1" vertex="1">
          <mxGeometry x="543" y="110" width="14" height="29" as="geometry" />
        </mxCell>
      </root>
    </mxGraphModel>
  </diagram>
  <diagram name="view_users" id="bbFlT6fhladS0ps8-cON">
    <mxGraphModel dx="1050" dy="629" grid="1" gridSize="10" guides="1" tooltips="1" connect="1" arrows="1" fold="1" page="1" pageScale="1" pageWidth="827" pageHeight="1169" math="0" shadow="0">
      <root>
        <mxCell id="BefMIbdW-3I2hxXpOxUC-0" />
        <mxCell id="BefMIbdW-3I2hxXpOxUC-1" parent="BefMIbdW-3I2hxXpOxUC-0" />
        <mxCell id="BefMIbdW-3I2hxXpOxUC-2" value="Interfaz" style="rounded=0;whiteSpace=wrap;html=1;" vertex="1" parent="BefMIbdW-3I2hxXpOxUC-1">
          <mxGeometry x="79" y="30" width="100" height="40" as="geometry" />
        </mxCell>
        <mxCell id="BefMIbdW-3I2hxXpOxUC-3" value="" style="endArrow=none;dashed=1;html=1;dashPattern=1 3;strokeWidth=2;rounded=0;entryX=0.5;entryY=1;entryDx=0;entryDy=0;exitX=0.5;exitY=0;exitDx=0;exitDy=0;" edge="1" parent="BefMIbdW-3I2hxXpOxUC-1" source="BefMIbdW-3I2hxXpOxUC-10" target="BefMIbdW-3I2hxXpOxUC-2">
          <mxGeometry width="50" height="50" relative="1" as="geometry">
            <mxPoint x="129" y="120" as="sourcePoint" />
            <mxPoint x="128.3" y="80" as="targetPoint" />
          </mxGeometry>
        </mxCell>
        <mxCell id="BefMIbdW-3I2hxXpOxUC-4" value="API Rest" style="rounded=0;whiteSpace=wrap;html=1;" vertex="1" parent="BefMIbdW-3I2hxXpOxUC-1">
          <mxGeometry x="280" y="30" width="100" height="40" as="geometry" />
        </mxCell>
        <mxCell id="BefMIbdW-3I2hxXpOxUC-5" value="" style="endArrow=none;dashed=1;html=1;dashPattern=1 3;strokeWidth=2;rounded=0;exitX=0.5;exitY=0;exitDx=0;exitDy=0;" edge="1" parent="BefMIbdW-3I2hxXpOxUC-1" source="BefMIbdW-3I2hxXpOxUC-14" target="BefMIbdW-3I2hxXpOxUC-4">
          <mxGeometry width="50" height="50" relative="1" as="geometry">
            <mxPoint x="330" y="120" as="sourcePoint" />
            <mxPoint x="329.29999999999995" y="80" as="targetPoint" />
          </mxGeometry>
        </mxCell>
        <mxCell id="BefMIbdW-3I2hxXpOxUC-6" value="Base de datos" style="rounded=0;whiteSpace=wrap;html=1;" vertex="1" parent="BefMIbdW-3I2hxXpOxUC-1">
          <mxGeometry x="500" y="30" width="100" height="40" as="geometry" />
        </mxCell>
        <mxCell id="BefMIbdW-3I2hxXpOxUC-7" value="" style="endArrow=none;dashed=1;html=1;dashPattern=1 3;strokeWidth=2;rounded=0;exitX=0.5;exitY=0;exitDx=0;exitDy=0;" edge="1" parent="BefMIbdW-3I2hxXpOxUC-1" source="BefMIbdW-3I2hxXpOxUC-17" target="BefMIbdW-3I2hxXpOxUC-6">
          <mxGeometry width="50" height="50" relative="1" as="geometry">
            <mxPoint x="550.0000000000002" y="140" as="sourcePoint" />
            <mxPoint x="549.3" y="80" as="targetPoint" />
          </mxGeometry>
        </mxCell>
        <mxCell id="BefMIbdW-3I2hxXpOxUC-8" style="edgeStyle=orthogonalEdgeStyle;rounded=0;orthogonalLoop=1;jettySize=auto;html=1;dashed=1;dashPattern=1 3;strokeColor=default;strokeWidth=2;align=center;verticalAlign=middle;fontFamily=Helvetica;fontSize=11;fontColor=default;labelBackgroundColor=default;endArrow=none;endFill=0;curved=0;" edge="1" parent="BefMIbdW-3I2hxXpOxUC-1" source="BefMIbdW-3I2hxXpOxUC-10">
          <mxGeometry relative="1" as="geometry">
            <mxPoint x="129" y="200" as="targetPoint" />
          </mxGeometry>
        </mxCell>
        <mxCell id="BefMIbdW-3I2hxXpOxUC-9" value="Solicitud de ver los usuarios" style="edgeStyle=orthogonalEdgeStyle;rounded=0;orthogonalLoop=1;jettySize=auto;html=1;entryX=0;entryY=0;entryDx=0;entryDy=0;verticalAlign=bottom;" edge="1" parent="BefMIbdW-3I2hxXpOxUC-1" target="BefMIbdW-3I2hxXpOxUC-14">
          <mxGeometry relative="1" as="geometry">
            <mxPoint x="140" y="97" as="sourcePoint" />
            <Array as="points">
              <mxPoint x="280" y="97" />
              <mxPoint x="280" y="97" />
            </Array>
          </mxGeometry>
        </mxCell>
        <mxCell id="BefMIbdW-3I2hxXpOxUC-10" value="" style="rounded=0;whiteSpace=wrap;html=1;" vertex="1" parent="BefMIbdW-3I2hxXpOxUC-1">
          <mxGeometry x="122" y="97" width="14" height="73" as="geometry" />
        </mxCell>
        <mxCell id="BefMIbdW-3I2hxXpOxUC-11" value="Obtener todos los usuarios" style="edgeStyle=orthogonalEdgeStyle;rounded=0;orthogonalLoop=1;jettySize=auto;html=1;entryX=0;entryY=0;entryDx=0;entryDy=0;verticalAlign=bottom;exitX=0.976;exitY=0.183;exitDx=0;exitDy=0;exitPerimeter=0;" edge="1" parent="BefMIbdW-3I2hxXpOxUC-1" source="BefMIbdW-3I2hxXpOxUC-14" target="BefMIbdW-3I2hxXpOxUC-17">
          <mxGeometry relative="1" as="geometry">
            <Array as="points">
              <mxPoint x="338" y="110" />
              <mxPoint x="543" y="110" />
            </Array>
            <mxPoint x="337" y="162" as="sourcePoint" />
            <mxPoint x="542" y="175" as="targetPoint" />
          </mxGeometry>
        </mxCell>
        <mxCell id="BefMIbdW-3I2hxXpOxUC-12" style="edgeStyle=orthogonalEdgeStyle;rounded=0;orthogonalLoop=1;jettySize=auto;html=1;dashed=1;dashPattern=1 3;strokeColor=default;strokeWidth=2;align=center;verticalAlign=middle;fontFamily=Helvetica;fontSize=11;fontColor=default;labelBackgroundColor=default;endArrow=none;endFill=0;curved=0;" edge="1" parent="BefMIbdW-3I2hxXpOxUC-1" source="BefMIbdW-3I2hxXpOxUC-14">
          <mxGeometry relative="1" as="geometry">
            <mxPoint x="330" y="200" as="targetPoint" />
          </mxGeometry>
        </mxCell>
        <mxCell id="BefMIbdW-3I2hxXpOxUC-13" value="Muestra datos por pantalla" style="edgeStyle=orthogonalEdgeStyle;rounded=0;orthogonalLoop=1;jettySize=auto;html=1;entryX=1;entryY=1;entryDx=0;entryDy=0;exitX=0;exitY=1;exitDx=0;exitDy=0;verticalAlign=bottom;" edge="1" parent="BefMIbdW-3I2hxXpOxUC-1" source="BefMIbdW-3I2hxXpOxUC-14" target="BefMIbdW-3I2hxXpOxUC-10">
          <mxGeometry relative="1" as="geometry">
            <Array as="points">
              <mxPoint x="136" y="170" />
            </Array>
          </mxGeometry>
        </mxCell>
        <mxCell id="BefMIbdW-3I2hxXpOxUC-14" value="" style="rounded=0;whiteSpace=wrap;html=1;" vertex="1" parent="BefMIbdW-3I2hxXpOxUC-1">
          <mxGeometry x="323" y="97" width="14" height="73" as="geometry" />
        </mxCell>
        <mxCell id="BefMIbdW-3I2hxXpOxUC-15" value="Devuelve informaciÃ³n" style="edgeStyle=orthogonalEdgeStyle;rounded=0;orthogonalLoop=1;jettySize=auto;html=1;verticalAlign=bottom;exitX=0;exitY=1;exitDx=0;exitDy=0;dashed=1;dashPattern=8 8;entryX=1.025;entryY=0.588;entryDx=0;entryDy=0;entryPerimeter=0;" edge="1" parent="BefMIbdW-3I2hxXpOxUC-1" source="BefMIbdW-3I2hxXpOxUC-17" target="BefMIbdW-3I2hxXpOxUC-14">
          <mxGeometry relative="1" as="geometry">
            <Array as="points">
              <mxPoint x="337" y="139" />
            </Array>
            <mxPoint x="337" y="206" as="targetPoint" />
            <mxPoint x="542" y="206" as="sourcePoint" />
          </mxGeometry>
        </mxCell>
        <mxCell id="BefMIbdW-3I2hxXpOxUC-16" style="edgeStyle=orthogonalEdgeStyle;rounded=0;orthogonalLoop=1;jettySize=auto;html=1;dashed=1;dashPattern=1 3;strokeColor=default;strokeWidth=2;align=center;verticalAlign=middle;fontFamily=Helvetica;fontSize=11;fontColor=default;labelBackgroundColor=default;endArrow=none;endFill=0;curved=0;" edge="1" parent="BefMIbdW-3I2hxXpOxUC-1" source="BefMIbdW-3I2hxXpOxUC-17">
          <mxGeometry relative="1" as="geometry">
            <mxPoint x="550" y="200" as="targetPoint" />
          </mxGeometry>
        </mxCell>
        <mxCell id="BefMIbdW-3I2hxXpOxUC-17" value="" style="rounded=0;whiteSpace=wrap;html=1;" vertex="1" parent="BefMIbdW-3I2hxXpOxUC-1">
          <mxGeometry x="543" y="110" width="14" height="29" as="geometry" />
        </mxCell>
      </root>
    </mxGraphModel>
  </diagram>
  <diagram name="delete_disk" id="aQUUZUwQnBQWc0miaNFi">
    <mxGraphModel dx="600" dy="359" grid="1" gridSize="10" guides="1" tooltips="1" connect="1" arrows="1" fold="1" page="1" pageScale="1" pageWidth="827" pageHeight="1169" math="0" shadow="0">
      <root>
        <mxCell id="7ErUSRRIPg5eG49tuJdQ-0" />
        <mxCell id="7ErUSRRIPg5eG49tuJdQ-1" parent="7ErUSRRIPg5eG49tuJdQ-0" />
        <mxCell id="7ErUSRRIPg5eG49tuJdQ-2" value="Interfaz" style="rounded=0;whiteSpace=wrap;html=1;" parent="7ErUSRRIPg5eG49tuJdQ-1" vertex="1">
          <mxGeometry x="79" y="30" width="100" height="40" as="geometry" />
        </mxCell>
        <mxCell id="7ErUSRRIPg5eG49tuJdQ-3" value="" style="endArrow=none;dashed=1;html=1;dashPattern=1 3;strokeWidth=2;rounded=0;entryX=0.5;entryY=1;entryDx=0;entryDy=0;exitX=0.5;exitY=0;exitDx=0;exitDy=0;" parent="7ErUSRRIPg5eG49tuJdQ-1" source="7ErUSRRIPg5eG49tuJdQ-10" target="7ErUSRRIPg5eG49tuJdQ-2" edge="1">
          <mxGeometry width="50" height="50" relative="1" as="geometry">
            <mxPoint x="129" y="120" as="sourcePoint" />
            <mxPoint x="128.3" y="80" as="targetPoint" />
          </mxGeometry>
        </mxCell>
        <mxCell id="7ErUSRRIPg5eG49tuJdQ-4" value="API Rest" style="rounded=0;whiteSpace=wrap;html=1;" parent="7ErUSRRIPg5eG49tuJdQ-1" vertex="1">
          <mxGeometry x="280" y="30" width="100" height="40" as="geometry" />
        </mxCell>
        <mxCell id="7ErUSRRIPg5eG49tuJdQ-5" value="" style="endArrow=none;dashed=1;html=1;dashPattern=1 3;strokeWidth=2;rounded=0;exitX=0.5;exitY=0;exitDx=0;exitDy=0;" parent="7ErUSRRIPg5eG49tuJdQ-1" source="7ErUSRRIPg5eG49tuJdQ-14" target="7ErUSRRIPg5eG49tuJdQ-4" edge="1">
          <mxGeometry width="50" height="50" relative="1" as="geometry">
            <mxPoint x="330" y="120" as="sourcePoint" />
            <mxPoint x="329.29999999999995" y="80" as="targetPoint" />
          </mxGeometry>
        </mxCell>
        <mxCell id="7ErUSRRIPg5eG49tuJdQ-6" value="Base de datos" style="rounded=0;whiteSpace=wrap;html=1;" parent="7ErUSRRIPg5eG49tuJdQ-1" vertex="1">
          <mxGeometry x="430" y="30" width="100" height="40" as="geometry" />
        </mxCell>
        <mxCell id="7ErUSRRIPg5eG49tuJdQ-7" value="" style="endArrow=none;dashed=1;html=1;dashPattern=1 3;strokeWidth=2;rounded=0;exitX=0.5;exitY=0;exitDx=0;exitDy=0;" parent="7ErUSRRIPg5eG49tuJdQ-1" source="7ErUSRRIPg5eG49tuJdQ-17" target="7ErUSRRIPg5eG49tuJdQ-6" edge="1">
          <mxGeometry width="50" height="50" relative="1" as="geometry">
            <mxPoint x="480.0000000000002" y="140" as="sourcePoint" />
            <mxPoint x="479.29999999999995" y="80" as="targetPoint" />
          </mxGeometry>
        </mxCell>
        <mxCell id="7ErUSRRIPg5eG49tuJdQ-8" style="edgeStyle=orthogonalEdgeStyle;rounded=0;orthogonalLoop=1;jettySize=auto;html=1;dashed=1;dashPattern=1 3;strokeColor=default;strokeWidth=2;align=center;verticalAlign=middle;fontFamily=Helvetica;fontSize=11;fontColor=default;labelBackgroundColor=default;endArrow=none;endFill=0;curved=0;" parent="7ErUSRRIPg5eG49tuJdQ-1" source="7ErUSRRIPg5eG49tuJdQ-10" edge="1">
          <mxGeometry relative="1" as="geometry">
            <mxPoint x="129" y="200" as="targetPoint" />
          </mxGeometry>
        </mxCell>
        <mxCell id="7ErUSRRIPg5eG49tuJdQ-9" value="Selecciona un disco para eliminar" style="edgeStyle=orthogonalEdgeStyle;rounded=0;orthogonalLoop=1;jettySize=auto;html=1;entryX=0;entryY=0;entryDx=0;entryDy=0;verticalAlign=bottom;" parent="7ErUSRRIPg5eG49tuJdQ-1" source="7ErUSRRIPg5eG49tuJdQ-10" target="7ErUSRRIPg5eG49tuJdQ-14" edge="1">
          <mxGeometry relative="1" as="geometry">
            <Array as="points">
              <mxPoint x="180" y="100" />
              <mxPoint x="180" y="100" />
            </Array>
          </mxGeometry>
        </mxCell>
        <mxCell id="5FmSwDbVz2hzIppq0kkz-2" value="Confirma eliminaciÃ³n" style="edgeStyle=orthogonalEdgeStyle;rounded=0;orthogonalLoop=1;jettySize=auto;html=1;dashed=1;dashPattern=8 8;strokeColor=default;align=center;verticalAlign=bottom;fontFamily=Helvetica;fontSize=11;fontColor=default;labelBackgroundColor=default;endArrow=classic;entryX=-0.008;entryY=0.416;entryDx=0;entryDy=0;entryPerimeter=0;exitX=1;exitY=1;exitDx=0;exitDy=0;" parent="7ErUSRRIPg5eG49tuJdQ-1" source="7ErUSRRIPg5eG49tuJdQ-10" target="7ErUSRRIPg5eG49tuJdQ-14" edge="1">
          <mxGeometry relative="1" as="geometry">
            <mxPoint x="280" y="160" as="targetPoint" />
            <Array as="points">
              <mxPoint x="180" y="150" />
              <mxPoint x="180" y="150" />
            </Array>
            <mxPoint x="140" y="150" as="sourcePoint" />
          </mxGeometry>
        </mxCell>
        <mxCell id="7ErUSRRIPg5eG49tuJdQ-10" value="" style="rounded=0;whiteSpace=wrap;html=1;" parent="7ErUSRRIPg5eG49tuJdQ-1" vertex="1">
          <mxGeometry x="122" y="100" width="14" height="50" as="geometry" />
        </mxCell>
        <mxCell id="7ErUSRRIPg5eG49tuJdQ-11" value="Eliminar disco" style="edgeStyle=orthogonalEdgeStyle;rounded=0;orthogonalLoop=1;jettySize=auto;html=1;entryX=0;entryY=0;entryDx=0;entryDy=0;verticalAlign=bottom;exitX=0.963;exitY=0.585;exitDx=0;exitDy=0;exitPerimeter=0;" parent="7ErUSRRIPg5eG49tuJdQ-1" source="7ErUSRRIPg5eG49tuJdQ-14" target="7ErUSRRIPg5eG49tuJdQ-17" edge="1">
          <mxGeometry relative="1" as="geometry">
            <Array as="points">
              <mxPoint x="440" y="170" />
              <mxPoint x="440" y="170" />
            </Array>
            <mxPoint x="337" y="110" as="sourcePoint" />
            <mxPoint x="542" y="123" as="targetPoint" />
          </mxGeometry>
        </mxCell>
        <mxCell id="7ErUSRRIPg5eG49tuJdQ-12" style="edgeStyle=orthogonalEdgeStyle;rounded=0;orthogonalLoop=1;jettySize=auto;html=1;dashed=1;dashPattern=1 3;strokeColor=default;strokeWidth=2;align=center;verticalAlign=middle;fontFamily=Helvetica;fontSize=11;fontColor=default;labelBackgroundColor=default;endArrow=none;endFill=0;curved=0;" parent="7ErUSRRIPg5eG49tuJdQ-1" source="7ErUSRRIPg5eG49tuJdQ-14" edge="1">
          <mxGeometry relative="1" as="geometry">
            <mxPoint x="330" y="240" as="targetPoint" />
          </mxGeometry>
        </mxCell>
        <mxCell id="7ErUSRRIPg5eG49tuJdQ-14" value="" style="rounded=0;whiteSpace=wrap;html=1;" parent="7ErUSRRIPg5eG49tuJdQ-1" vertex="1">
          <mxGeometry x="323" y="100" width="14" height="120" as="geometry" />
        </mxCell>
        <mxCell id="7ErUSRRIPg5eG49tuJdQ-15" value="Disco eliminado" style="edgeStyle=orthogonalEdgeStyle;rounded=0;orthogonalLoop=1;jettySize=auto;html=1;verticalAlign=bottom;exitX=0;exitY=1;exitDx=0;exitDy=0;dashed=1;dashPattern=8 8;entryX=1;entryY=1;entryDx=0;entryDy=0;" parent="7ErUSRRIPg5eG49tuJdQ-1" source="7ErUSRRIPg5eG49tuJdQ-17" target="7ErUSRRIPg5eG49tuJdQ-14" edge="1">
          <mxGeometry relative="1" as="geometry">
            <Array as="points">
              <mxPoint x="340" y="220" />
              <mxPoint x="340" y="220" />
            </Array>
            <mxPoint x="337" y="154" as="targetPoint" />
            <mxPoint x="542" y="154" as="sourcePoint" />
          </mxGeometry>
        </mxCell>
        <mxCell id="7ErUSRRIPg5eG49tuJdQ-16" style="edgeStyle=orthogonalEdgeStyle;rounded=0;orthogonalLoop=1;jettySize=auto;html=1;dashed=1;dashPattern=1 3;strokeColor=default;strokeWidth=2;align=center;verticalAlign=middle;fontFamily=Helvetica;fontSize=11;fontColor=default;labelBackgroundColor=default;endArrow=none;endFill=0;curved=0;" parent="7ErUSRRIPg5eG49tuJdQ-1" source="7ErUSRRIPg5eG49tuJdQ-17" edge="1">
          <mxGeometry relative="1" as="geometry">
            <mxPoint x="480" y="240" as="targetPoint" />
          </mxGeometry>
        </mxCell>
        <mxCell id="7ErUSRRIPg5eG49tuJdQ-17" value="" style="rounded=0;whiteSpace=wrap;html=1;" parent="7ErUSRRIPg5eG49tuJdQ-1" vertex="1">
          <mxGeometry x="473" y="170" width="14" height="50" as="geometry" />
        </mxCell>
        <mxCell id="5FmSwDbVz2hzIppq0kkz-1" value="Solicita confirmaciÃ³n" style="edgeStyle=orthogonalEdgeStyle;rounded=0;orthogonalLoop=1;jettySize=auto;html=1;verticalAlign=bottom;" parent="7ErUSRRIPg5eG49tuJdQ-1" source="7ErUSRRIPg5eG49tuJdQ-14" edge="1">
          <mxGeometry relative="1" as="geometry">
            <mxPoint x="135" y="125" as="targetPoint" />
            <Array as="points">
              <mxPoint x="135" y="125" />
            </Array>
          </mxGeometry>
        </mxCell>
      </root>
    </mxGraphModel>
  </diagram>
  <diagram name="delete_user" id="uRpI8nsdCM-GtOULFxui">
    <mxGraphModel dx="1050" dy="629" grid="1" gridSize="10" guides="1" tooltips="1" connect="1" arrows="1" fold="1" page="1" pageScale="1" pageWidth="827" pageHeight="1169" math="0" shadow="0">
      <root>
        <mxCell id="kzwc79y-JYB_xbVTnA9c-0" />
        <mxCell id="kzwc79y-JYB_xbVTnA9c-1" parent="kzwc79y-JYB_xbVTnA9c-0" />
        <mxCell id="kzwc79y-JYB_xbVTnA9c-2" value="Interfaz" style="rounded=0;whiteSpace=wrap;html=1;" vertex="1" parent="kzwc79y-JYB_xbVTnA9c-1">
          <mxGeometry x="79" y="30" width="100" height="40" as="geometry" />
        </mxCell>
        <mxCell id="kzwc79y-JYB_xbVTnA9c-3" value="" style="endArrow=none;dashed=1;html=1;dashPattern=1 3;strokeWidth=2;rounded=0;entryX=0.5;entryY=1;entryDx=0;entryDy=0;exitX=0.5;exitY=0;exitDx=0;exitDy=0;" edge="1" parent="kzwc79y-JYB_xbVTnA9c-1" source="kzwc79y-JYB_xbVTnA9c-11" target="kzwc79y-JYB_xbVTnA9c-2">
          <mxGeometry width="50" height="50" relative="1" as="geometry">
            <mxPoint x="129" y="120" as="sourcePoint" />
            <mxPoint x="128.3" y="80" as="targetPoint" />
          </mxGeometry>
        </mxCell>
        <mxCell id="kzwc79y-JYB_xbVTnA9c-4" value="API Rest" style="rounded=0;whiteSpace=wrap;html=1;" vertex="1" parent="kzwc79y-JYB_xbVTnA9c-1">
          <mxGeometry x="280" y="30" width="100" height="40" as="geometry" />
        </mxCell>
        <mxCell id="kzwc79y-JYB_xbVTnA9c-5" value="" style="endArrow=none;dashed=1;html=1;dashPattern=1 3;strokeWidth=2;rounded=0;exitX=0.5;exitY=0;exitDx=0;exitDy=0;" edge="1" parent="kzwc79y-JYB_xbVTnA9c-1" source="kzwc79y-JYB_xbVTnA9c-14" target="kzwc79y-JYB_xbVTnA9c-4">
          <mxGeometry width="50" height="50" relative="1" as="geometry">
            <mxPoint x="330" y="120" as="sourcePoint" />
            <mxPoint x="329.29999999999995" y="80" as="targetPoint" />
          </mxGeometry>
        </mxCell>
        <mxCell id="kzwc79y-JYB_xbVTnA9c-6" value="Base de datos" style="rounded=0;whiteSpace=wrap;html=1;" vertex="1" parent="kzwc79y-JYB_xbVTnA9c-1">
          <mxGeometry x="430" y="30" width="100" height="40" as="geometry" />
        </mxCell>
        <mxCell id="kzwc79y-JYB_xbVTnA9c-7" value="" style="endArrow=none;dashed=1;html=1;dashPattern=1 3;strokeWidth=2;rounded=0;exitX=0.5;exitY=0;exitDx=0;exitDy=0;" edge="1" parent="kzwc79y-JYB_xbVTnA9c-1" source="kzwc79y-JYB_xbVTnA9c-17" target="kzwc79y-JYB_xbVTnA9c-6">
          <mxGeometry width="50" height="50" relative="1" as="geometry">
            <mxPoint x="480.0000000000002" y="140" as="sourcePoint" />
            <mxPoint x="479.29999999999995" y="80" as="targetPoint" />
          </mxGeometry>
        </mxCell>
        <mxCell id="kzwc79y-JYB_xbVTnA9c-8" style="edgeStyle=orthogonalEdgeStyle;rounded=0;orthogonalLoop=1;jettySize=auto;html=1;dashed=1;dashPattern=1 3;strokeColor=default;strokeWidth=2;align=center;verticalAlign=middle;fontFamily=Helvetica;fontSize=11;fontColor=default;labelBackgroundColor=default;endArrow=none;endFill=0;curved=0;" edge="1" parent="kzwc79y-JYB_xbVTnA9c-1" source="kzwc79y-JYB_xbVTnA9c-11">
          <mxGeometry relative="1" as="geometry">
            <mxPoint x="129" y="200" as="targetPoint" />
          </mxGeometry>
        </mxCell>
        <mxCell id="kzwc79y-JYB_xbVTnA9c-9" value="Selecciona un usuario para eliminar" style="edgeStyle=orthogonalEdgeStyle;rounded=0;orthogonalLoop=1;jettySize=auto;html=1;entryX=0;entryY=0;entryDx=0;entryDy=0;verticalAlign=bottom;" edge="1" parent="kzwc79y-JYB_xbVTnA9c-1" source="kzwc79y-JYB_xbVTnA9c-11" target="kzwc79y-JYB_xbVTnA9c-14">
          <mxGeometry relative="1" as="geometry">
            <Array as="points">
              <mxPoint x="180" y="100" />
              <mxPoint x="180" y="100" />
            </Array>
          </mxGeometry>
        </mxCell>
        <mxCell id="kzwc79y-JYB_xbVTnA9c-10" value="Confirma eliminaciÃ³n" style="edgeStyle=orthogonalEdgeStyle;rounded=0;orthogonalLoop=1;jettySize=auto;html=1;dashed=1;dashPattern=8 8;strokeColor=default;align=center;verticalAlign=bottom;fontFamily=Helvetica;fontSize=11;fontColor=default;labelBackgroundColor=default;endArrow=classic;entryX=-0.008;entryY=0.416;entryDx=0;entryDy=0;entryPerimeter=0;exitX=1;exitY=1;exitDx=0;exitDy=0;" edge="1" parent="kzwc79y-JYB_xbVTnA9c-1" source="kzwc79y-JYB_xbVTnA9c-11" target="kzwc79y-JYB_xbVTnA9c-14">
          <mxGeometry relative="1" as="geometry">
            <mxPoint x="280" y="160" as="targetPoint" />
            <Array as="points">
              <mxPoint x="180" y="150" />
              <mxPoint x="180" y="150" />
            </Array>
            <mxPoint x="140" y="150" as="sourcePoint" />
          </mxGeometry>
        </mxCell>
        <mxCell id="kzwc79y-JYB_xbVTnA9c-11" value="" style="rounded=0;whiteSpace=wrap;html=1;" vertex="1" parent="kzwc79y-JYB_xbVTnA9c-1">
          <mxGeometry x="122" y="100" width="14" height="50" as="geometry" />
        </mxCell>
        <mxCell id="kzwc79y-JYB_xbVTnA9c-12" value="Eliminar usuario" style="edgeStyle=orthogonalEdgeStyle;rounded=0;orthogonalLoop=1;jettySize=auto;html=1;entryX=0;entryY=0;entryDx=0;entryDy=0;verticalAlign=bottom;exitX=0.963;exitY=0.585;exitDx=0;exitDy=0;exitPerimeter=0;" edge="1" parent="kzwc79y-JYB_xbVTnA9c-1" source="kzwc79y-JYB_xbVTnA9c-14" target="kzwc79y-JYB_xbVTnA9c-17">
          <mxGeometry relative="1" as="geometry">
            <Array as="points">
              <mxPoint x="440" y="170" />
              <mxPoint x="440" y="170" />
            </Array>
            <mxPoint x="337" y="110" as="sourcePoint" />
            <mxPoint x="542" y="123" as="targetPoint" />
          </mxGeometry>
        </mxCell>
        <mxCell id="kzwc79y-JYB_xbVTnA9c-13" style="edgeStyle=orthogonalEdgeStyle;rounded=0;orthogonalLoop=1;jettySize=auto;html=1;dashed=1;dashPattern=1 3;strokeColor=default;strokeWidth=2;align=center;verticalAlign=middle;fontFamily=Helvetica;fontSize=11;fontColor=default;labelBackgroundColor=default;endArrow=none;endFill=0;curved=0;" edge="1" parent="kzwc79y-JYB_xbVTnA9c-1" source="kzwc79y-JYB_xbVTnA9c-14">
          <mxGeometry relative="1" as="geometry">
            <mxPoint x="330" y="240" as="targetPoint" />
          </mxGeometry>
        </mxCell>
        <mxCell id="kzwc79y-JYB_xbVTnA9c-14" value="" style="rounded=0;whiteSpace=wrap;html=1;" vertex="1" parent="kzwc79y-JYB_xbVTnA9c-1">
          <mxGeometry x="323" y="100" width="14" height="120" as="geometry" />
        </mxCell>
        <mxCell id="kzwc79y-JYB_xbVTnA9c-15" value="Usuario eliminado" style="edgeStyle=orthogonalEdgeStyle;rounded=0;orthogonalLoop=1;jettySize=auto;html=1;verticalAlign=bottom;exitX=0;exitY=1;exitDx=0;exitDy=0;dashed=1;dashPattern=8 8;entryX=1;entryY=1;entryDx=0;entryDy=0;" edge="1" parent="kzwc79y-JYB_xbVTnA9c-1" source="kzwc79y-JYB_xbVTnA9c-17" target="kzwc79y-JYB_xbVTnA9c-14">
          <mxGeometry relative="1" as="geometry">
            <Array as="points">
              <mxPoint x="340" y="220" />
              <mxPoint x="340" y="220" />
            </Array>
            <mxPoint x="337" y="154" as="targetPoint" />
            <mxPoint x="542" y="154" as="sourcePoint" />
          </mxGeometry>
        </mxCell>
        <mxCell id="kzwc79y-JYB_xbVTnA9c-16" style="edgeStyle=orthogonalEdgeStyle;rounded=0;orthogonalLoop=1;jettySize=auto;html=1;dashed=1;dashPattern=1 3;strokeColor=default;strokeWidth=2;align=center;verticalAlign=middle;fontFamily=Helvetica;fontSize=11;fontColor=default;labelBackgroundColor=default;endArrow=none;endFill=0;curved=0;" edge="1" parent="kzwc79y-JYB_xbVTnA9c-1" source="kzwc79y-JYB_xbVTnA9c-17">
          <mxGeometry relative="1" as="geometry">
            <mxPoint x="480" y="240" as="targetPoint" />
          </mxGeometry>
        </mxCell>
        <mxCell id="kzwc79y-JYB_xbVTnA9c-17" value="" style="rounded=0;whiteSpace=wrap;html=1;" vertex="1" parent="kzwc79y-JYB_xbVTnA9c-1">
          <mxGeometry x="473" y="170" width="14" height="50" as="geometry" />
        </mxCell>
        <mxCell id="kzwc79y-JYB_xbVTnA9c-18" value="Solicita confirmaciÃ³n" style="edgeStyle=orthogonalEdgeStyle;rounded=0;orthogonalLoop=1;jettySize=auto;html=1;verticalAlign=bottom;" edge="1" parent="kzwc79y-JYB_xbVTnA9c-1" source="kzwc79y-JYB_xbVTnA9c-14">
          <mxGeometry relative="1" as="geometry">
            <mxPoint x="135" y="125" as="targetPoint" />
            <Array as="points">
              <mxPoint x="135" y="125" />
            </Array>
          </mxGeometry>
        </mxCell>
      </root>
    </mxGraphModel>
  </diagram>
  <diagram id="SX84fUdxkKiR0s6o8Vh7" name="modify_disk">
    <mxGraphModel dx="724" dy="434" grid="1" gridSize="10" guides="1" tooltips="1" connect="1" arrows="1" fold="1" page="1" pageScale="1" pageWidth="827" pageHeight="1169" math="0" shadow="0">
      <root>
        <mxCell id="0" />
        <mxCell id="1" parent="0" />
        <mxCell id="JKkwzqUFCfURhDAbDau4-1" value="Interfaz" style="rounded=0;whiteSpace=wrap;html=1;" parent="1" vertex="1">
          <mxGeometry x="79" y="30" width="100" height="40" as="geometry" />
        </mxCell>
        <mxCell id="JKkwzqUFCfURhDAbDau4-2" value="" style="endArrow=none;dashed=1;html=1;dashPattern=1 3;strokeWidth=2;rounded=0;entryX=0.5;entryY=1;entryDx=0;entryDy=0;exitX=0.5;exitY=0;exitDx=0;exitDy=0;" parent="1" source="JKkwzqUFCfURhDAbDau4-9" target="JKkwzqUFCfURhDAbDau4-1" edge="1">
          <mxGeometry width="50" height="50" relative="1" as="geometry">
            <mxPoint x="129" y="120" as="sourcePoint" />
            <mxPoint x="128.3" y="80" as="targetPoint" />
          </mxGeometry>
        </mxCell>
        <mxCell id="JKkwzqUFCfURhDAbDau4-3" value="API Rest" style="rounded=0;whiteSpace=wrap;html=1;" parent="1" vertex="1">
          <mxGeometry x="280" y="30" width="100" height="40" as="geometry" />
        </mxCell>
        <mxCell id="JKkwzqUFCfURhDAbDau4-4" value="" style="endArrow=none;dashed=1;html=1;dashPattern=1 3;strokeWidth=2;rounded=0;exitX=0.5;exitY=0;exitDx=0;exitDy=0;" parent="1" source="JKkwzqUFCfURhDAbDau4-13" target="JKkwzqUFCfURhDAbDau4-3" edge="1">
          <mxGeometry width="50" height="50" relative="1" as="geometry">
            <mxPoint x="330" y="120" as="sourcePoint" />
            <mxPoint x="329.29999999999995" y="80" as="targetPoint" />
          </mxGeometry>
        </mxCell>
        <mxCell id="JKkwzqUFCfURhDAbDau4-5" value="Base de datos" style="rounded=0;whiteSpace=wrap;html=1;" parent="1" vertex="1">
          <mxGeometry x="500" y="30" width="100" height="40" as="geometry" />
        </mxCell>
        <mxCell id="JKkwzqUFCfURhDAbDau4-6" value="" style="endArrow=none;dashed=1;html=1;dashPattern=1 3;strokeWidth=2;rounded=0;exitX=0.5;exitY=0;exitDx=0;exitDy=0;" parent="1" source="JKkwzqUFCfURhDAbDau4-16" target="JKkwzqUFCfURhDAbDau4-5" edge="1">
          <mxGeometry width="50" height="50" relative="1" as="geometry">
            <mxPoint x="550.0000000000002" y="140" as="sourcePoint" />
            <mxPoint x="549.3" y="80" as="targetPoint" />
          </mxGeometry>
        </mxCell>
        <mxCell id="JKkwzqUFCfURhDAbDau4-7" style="edgeStyle=orthogonalEdgeStyle;rounded=0;orthogonalLoop=1;jettySize=auto;html=1;dashed=1;dashPattern=1 3;strokeColor=default;strokeWidth=2;align=center;verticalAlign=middle;fontFamily=Helvetica;fontSize=11;fontColor=default;labelBackgroundColor=default;endArrow=none;endFill=0;curved=0;" parent="1" source="JKkwzqUFCfURhDAbDau4-9" edge="1">
          <mxGeometry relative="1" as="geometry">
            <mxPoint x="130" y="250" as="targetPoint" />
          </mxGeometry>
        </mxCell>
        <mxCell id="JKkwzqUFCfURhDAbDau4-8" value="Selecciona un&amp;nbsp; disco" style="edgeStyle=orthogonalEdgeStyle;rounded=0;orthogonalLoop=1;jettySize=auto;html=1;entryX=0;entryY=0;entryDx=0;entryDy=0;verticalAlign=bottom;" parent="1" source="JKkwzqUFCfURhDAbDau4-9" target="JKkwzqUFCfURhDAbDau4-13" edge="1">
          <mxGeometry relative="1" as="geometry">
            <Array as="points">
              <mxPoint x="180" y="100" />
              <mxPoint x="180" y="100" />
            </Array>
          </mxGeometry>
        </mxCell>
        <mxCell id="JKkwzqUFCfURhDAbDau4-17" value="Realiza cambios deseados" style="edgeStyle=orthogonalEdgeStyle;rounded=0;orthogonalLoop=1;jettySize=auto;html=1;entryX=0.057;entryY=0.696;entryDx=0;entryDy=0;verticalAlign=bottom;entryPerimeter=0;exitX=1;exitY=1;exitDx=0;exitDy=0;" parent="1" source="JKkwzqUFCfURhDAbDau4-9" target="JKkwzqUFCfURhDAbDau4-13" edge="1">
          <mxGeometry relative="1" as="geometry">
            <Array as="points">
              <mxPoint x="310" y="190" />
            </Array>
          </mxGeometry>
        </mxCell>
        <mxCell id="JKkwzqUFCfURhDAbDau4-9" value="" style="rounded=0;whiteSpace=wrap;html=1;" parent="1" vertex="1">
          <mxGeometry x="122" y="100" width="14" height="90" as="geometry" />
        </mxCell>
        <mxCell id="JKkwzqUFCfURhDAbDau4-10" value="Obtener datos del disco" style="edgeStyle=orthogonalEdgeStyle;rounded=0;orthogonalLoop=1;jettySize=auto;html=1;entryX=0;entryY=0;entryDx=0;entryDy=0;verticalAlign=bottom;exitX=1;exitY=0;exitDx=0;exitDy=0;" parent="1" source="JKkwzqUFCfURhDAbDau4-13" target="JKkwzqUFCfURhDAbDau4-16" edge="1">
          <mxGeometry relative="1" as="geometry">
            <Array as="points">
              <mxPoint x="337" y="110" />
              <mxPoint x="543" y="110" />
            </Array>
            <mxPoint x="337" y="110" as="sourcePoint" />
            <mxPoint x="542" y="123" as="targetPoint" />
          </mxGeometry>
        </mxCell>
        <mxCell id="JKkwzqUFCfURhDAbDau4-11" style="edgeStyle=orthogonalEdgeStyle;rounded=0;orthogonalLoop=1;jettySize=auto;html=1;dashed=1;dashPattern=1 3;strokeColor=default;strokeWidth=2;align=center;verticalAlign=middle;fontFamily=Helvetica;fontSize=11;fontColor=default;labelBackgroundColor=default;endArrow=none;endFill=0;curved=0;" parent="1" source="JKkwzqUFCfURhDAbDau4-13" edge="1">
          <mxGeometry relative="1" as="geometry">
            <mxPoint x="330" y="250" as="targetPoint" />
          </mxGeometry>
        </mxCell>
        <mxCell id="JKkwzqUFCfURhDAbDau4-12" value="Muestra la informaciÃ³n del disco" style="edgeStyle=orthogonalEdgeStyle;rounded=0;orthogonalLoop=1;jettySize=auto;html=1;verticalAlign=bottom;exitX=-0.038;exitY=0.458;exitDx=0;exitDy=0;exitPerimeter=0;" parent="1" source="JKkwzqUFCfURhDAbDau4-13" edge="1">
          <mxGeometry relative="1" as="geometry">
            <Array as="points">
              <mxPoint x="321" y="160" />
            </Array>
            <mxPoint x="320" y="160" as="sourcePoint" />
            <mxPoint x="136" y="160" as="targetPoint" />
          </mxGeometry>
        </mxCell>
        <mxCell id="JKkwzqUFCfURhDAbDau4-13" value="" style="rounded=0;whiteSpace=wrap;html=1;" parent="1" vertex="1">
          <mxGeometry x="323" y="100" width="14" height="130" as="geometry" />
        </mxCell>
        <mxCell id="JKkwzqUFCfURhDAbDau4-14" value="Devuelve informaciÃ³n" style="edgeStyle=orthogonalEdgeStyle;rounded=0;orthogonalLoop=1;jettySize=auto;html=1;verticalAlign=bottom;exitX=0;exitY=0.25;exitDx=0;exitDy=0;dashed=1;dashPattern=8 8;entryX=1.032;entryY=0.308;entryDx=0;entryDy=0;entryPerimeter=0;" parent="1" source="JKkwzqUFCfURhDAbDau4-16" target="JKkwzqUFCfURhDAbDau4-13" edge="1">
          <mxGeometry relative="1" as="geometry">
            <Array as="points" />
            <mxPoint x="340" y="140" as="targetPoint" />
            <mxPoint x="542" y="154" as="sourcePoint" />
          </mxGeometry>
        </mxCell>
        <mxCell id="JKkwzqUFCfURhDAbDau4-15" style="edgeStyle=orthogonalEdgeStyle;rounded=0;orthogonalLoop=1;jettySize=auto;html=1;dashed=1;dashPattern=1 3;strokeColor=default;strokeWidth=2;align=center;verticalAlign=middle;fontFamily=Helvetica;fontSize=11;fontColor=default;labelBackgroundColor=default;endArrow=none;endFill=0;curved=0;" parent="1" source="JKkwzqUFCfURhDAbDau4-16" edge="1">
          <mxGeometry relative="1" as="geometry">
            <mxPoint x="550" y="250" as="targetPoint" />
          </mxGeometry>
        </mxCell>
        <mxCell id="z7U4Ip-ViG2HCsp4HZkH-1" value="Cambios realizados" style="edgeStyle=orthogonalEdgeStyle;rounded=0;orthogonalLoop=1;jettySize=auto;html=1;entryX=1;entryY=1;entryDx=0;entryDy=0;dashed=1;dashPattern=8 8;strokeColor=default;align=center;verticalAlign=bottom;fontFamily=Helvetica;fontSize=11;fontColor=default;labelBackgroundColor=default;endArrow=classic;" edge="1" parent="1" source="JKkwzqUFCfURhDAbDau4-16" target="JKkwzqUFCfURhDAbDau4-13">
          <mxGeometry relative="1" as="geometry">
            <Array as="points">
              <mxPoint x="500" y="230" />
              <mxPoint x="500" y="230" />
            </Array>
          </mxGeometry>
        </mxCell>
        <mxCell id="JKkwzqUFCfURhDAbDau4-16" value="" style="rounded=0;whiteSpace=wrap;html=1;" parent="1" vertex="1">
          <mxGeometry x="543" y="110" width="14" height="120" as="geometry" />
        </mxCell>
        <mxCell id="T6GfXzY1ClXfA2ClLZ4U-1" value="Realiza los cambios" style="edgeStyle=orthogonalEdgeStyle;rounded=0;orthogonalLoop=1;jettySize=auto;align=center;verticalAlign=bottom;entryX=0.106;entryY=0.835;entryDx=0;entryDy=0;entryPerimeter=0;" parent="1" target="JKkwzqUFCfURhDAbDau4-16" edge="1">
          <mxGeometry relative="1" as="geometry">
            <mxPoint x="337" y="210" as="sourcePoint" />
            <Array as="points" />
            <mxPoint x="540" y="210" as="targetPoint" />
          </mxGeometry>
        </mxCell>
      </root>
    </mxGraphModel>
  </diagram>
  <diagram name="modify_user" id="Fy6xjWU3w3jrw0J0RRcD">
    <mxGraphModel dx="724" dy="434" grid="1" gridSize="10" guides="1" tooltips="1" connect="1" arrows="1" fold="1" page="1" pageScale="1" pageWidth="827" pageHeight="1169" math="0" shadow="0">
      <root>
        <mxCell id="L7G5GrOmhy04iDT3GXr1-0" />
        <mxCell id="L7G5GrOmhy04iDT3GXr1-1" parent="L7G5GrOmhy04iDT3GXr1-0" />
        <mxCell id="L7G5GrOmhy04iDT3GXr1-2" value="Interfaz" style="rounded=0;whiteSpace=wrap;html=1;" vertex="1" parent="L7G5GrOmhy04iDT3GXr1-1">
          <mxGeometry x="79" y="30" width="100" height="40" as="geometry" />
        </mxCell>
        <mxCell id="L7G5GrOmhy04iDT3GXr1-3" value="" style="endArrow=none;dashed=1;html=1;dashPattern=1 3;strokeWidth=2;rounded=0;entryX=0.5;entryY=1;entryDx=0;entryDy=0;exitX=0.5;exitY=0;exitDx=0;exitDy=0;" edge="1" parent="L7G5GrOmhy04iDT3GXr1-1" source="L7G5GrOmhy04iDT3GXr1-11" target="L7G5GrOmhy04iDT3GXr1-2">
          <mxGeometry width="50" height="50" relative="1" as="geometry">
            <mxPoint x="129" y="120" as="sourcePoint" />
            <mxPoint x="128.3" y="80" as="targetPoint" />
          </mxGeometry>
        </mxCell>
        <mxCell id="L7G5GrOmhy04iDT3GXr1-4" value="API Rest" style="rounded=0;whiteSpace=wrap;html=1;" vertex="1" parent="L7G5GrOmhy04iDT3GXr1-1">
          <mxGeometry x="280" y="30" width="100" height="40" as="geometry" />
        </mxCell>
        <mxCell id="L7G5GrOmhy04iDT3GXr1-5" value="" style="endArrow=none;dashed=1;html=1;dashPattern=1 3;strokeWidth=2;rounded=0;exitX=0.5;exitY=0;exitDx=0;exitDy=0;" edge="1" parent="L7G5GrOmhy04iDT3GXr1-1" source="L7G5GrOmhy04iDT3GXr1-15" target="L7G5GrOmhy04iDT3GXr1-4">
          <mxGeometry width="50" height="50" relative="1" as="geometry">
            <mxPoint x="330" y="120" as="sourcePoint" />
            <mxPoint x="329.29999999999995" y="80" as="targetPoint" />
          </mxGeometry>
        </mxCell>
        <mxCell id="L7G5GrOmhy04iDT3GXr1-6" value="Base de datos" style="rounded=0;whiteSpace=wrap;html=1;" vertex="1" parent="L7G5GrOmhy04iDT3GXr1-1">
          <mxGeometry x="500" y="30" width="100" height="40" as="geometry" />
        </mxCell>
        <mxCell id="L7G5GrOmhy04iDT3GXr1-7" value="" style="endArrow=none;dashed=1;html=1;dashPattern=1 3;strokeWidth=2;rounded=0;exitX=0.5;exitY=0;exitDx=0;exitDy=0;" edge="1" parent="L7G5GrOmhy04iDT3GXr1-1" source="L7G5GrOmhy04iDT3GXr1-19" target="L7G5GrOmhy04iDT3GXr1-6">
          <mxGeometry width="50" height="50" relative="1" as="geometry">
            <mxPoint x="550.0000000000002" y="140" as="sourcePoint" />
            <mxPoint x="549.3" y="80" as="targetPoint" />
          </mxGeometry>
        </mxCell>
        <mxCell id="L7G5GrOmhy04iDT3GXr1-8" style="edgeStyle=orthogonalEdgeStyle;rounded=0;orthogonalLoop=1;jettySize=auto;html=1;dashed=1;dashPattern=1 3;strokeColor=default;strokeWidth=2;align=center;verticalAlign=middle;fontFamily=Helvetica;fontSize=11;fontColor=default;labelBackgroundColor=default;endArrow=none;endFill=0;curved=0;" edge="1" parent="L7G5GrOmhy04iDT3GXr1-1" source="L7G5GrOmhy04iDT3GXr1-11">
          <mxGeometry relative="1" as="geometry">
            <mxPoint x="130" y="250" as="targetPoint" />
          </mxGeometry>
        </mxCell>
        <mxCell id="L7G5GrOmhy04iDT3GXr1-9" value="Selecciona un usuario" style="edgeStyle=orthogonalEdgeStyle;rounded=0;orthogonalLoop=1;jettySize=auto;html=1;entryX=0;entryY=0;entryDx=0;entryDy=0;verticalAlign=bottom;" edge="1" parent="L7G5GrOmhy04iDT3GXr1-1" source="L7G5GrOmhy04iDT3GXr1-11" target="L7G5GrOmhy04iDT3GXr1-15">
          <mxGeometry x="0.0031" relative="1" as="geometry">
            <Array as="points">
              <mxPoint x="180" y="100" />
              <mxPoint x="180" y="100" />
            </Array>
            <mxPoint as="offset" />
          </mxGeometry>
        </mxCell>
        <mxCell id="L7G5GrOmhy04iDT3GXr1-10" value="Realiza cambios deseados" style="edgeStyle=orthogonalEdgeStyle;rounded=0;orthogonalLoop=1;jettySize=auto;html=1;entryX=0.057;entryY=0.696;entryDx=0;entryDy=0;verticalAlign=bottom;entryPerimeter=0;exitX=1;exitY=1;exitDx=0;exitDy=0;" edge="1" parent="L7G5GrOmhy04iDT3GXr1-1" source="L7G5GrOmhy04iDT3GXr1-11" target="L7G5GrOmhy04iDT3GXr1-15">
          <mxGeometry relative="1" as="geometry">
            <Array as="points">
              <mxPoint x="310" y="190" />
            </Array>
          </mxGeometry>
        </mxCell>
        <mxCell id="L7G5GrOmhy04iDT3GXr1-11" value="" style="rounded=0;whiteSpace=wrap;html=1;" vertex="1" parent="L7G5GrOmhy04iDT3GXr1-1">
          <mxGeometry x="122" y="100" width="14" height="90" as="geometry" />
        </mxCell>
        <mxCell id="L7G5GrOmhy04iDT3GXr1-12" value="Obtener datos del usuario" style="edgeStyle=orthogonalEdgeStyle;rounded=0;orthogonalLoop=1;jettySize=auto;html=1;entryX=0;entryY=0;entryDx=0;entryDy=0;verticalAlign=bottom;exitX=1;exitY=0;exitDx=0;exitDy=0;" edge="1" parent="L7G5GrOmhy04iDT3GXr1-1" source="L7G5GrOmhy04iDT3GXr1-15" target="L7G5GrOmhy04iDT3GXr1-19">
          <mxGeometry relative="1" as="geometry">
            <Array as="points">
              <mxPoint x="337" y="110" />
              <mxPoint x="543" y="110" />
            </Array>
            <mxPoint x="337" y="110" as="sourcePoint" />
            <mxPoint x="542" y="123" as="targetPoint" />
          </mxGeometry>
        </mxCell>
        <mxCell id="L7G5GrOmhy04iDT3GXr1-13" style="edgeStyle=orthogonalEdgeStyle;rounded=0;orthogonalLoop=1;jettySize=auto;html=1;dashed=1;dashPattern=1 3;strokeColor=default;strokeWidth=2;align=center;verticalAlign=middle;fontFamily=Helvetica;fontSize=11;fontColor=default;labelBackgroundColor=default;endArrow=none;endFill=0;curved=0;" edge="1" parent="L7G5GrOmhy04iDT3GXr1-1" source="L7G5GrOmhy04iDT3GXr1-15">
          <mxGeometry relative="1" as="geometry">
            <mxPoint x="330" y="250" as="targetPoint" />
          </mxGeometry>
        </mxCell>
        <mxCell id="L7G5GrOmhy04iDT3GXr1-14" value="Muestra la informaciÃ³n del usuario" style="edgeStyle=orthogonalEdgeStyle;rounded=0;orthogonalLoop=1;jettySize=auto;html=1;verticalAlign=bottom;exitX=-0.038;exitY=0.458;exitDx=0;exitDy=0;exitPerimeter=0;" edge="1" parent="L7G5GrOmhy04iDT3GXr1-1" source="L7G5GrOmhy04iDT3GXr1-15">
          <mxGeometry relative="1" as="geometry">
            <Array as="points">
              <mxPoint x="321" y="160" />
            </Array>
            <mxPoint x="320" y="160" as="sourcePoint" />
            <mxPoint x="136" y="160" as="targetPoint" />
          </mxGeometry>
        </mxCell>
        <mxCell id="L7G5GrOmhy04iDT3GXr1-15" value="" style="rounded=0;whiteSpace=wrap;html=1;" vertex="1" parent="L7G5GrOmhy04iDT3GXr1-1">
          <mxGeometry x="323" y="100" width="14" height="130" as="geometry" />
        </mxCell>
        <mxCell id="L7G5GrOmhy04iDT3GXr1-16" value="Devuelve informaciÃ³n" style="edgeStyle=orthogonalEdgeStyle;rounded=0;orthogonalLoop=1;jettySize=auto;html=1;verticalAlign=bottom;exitX=0;exitY=0.25;exitDx=0;exitDy=0;dashed=1;dashPattern=8 8;entryX=1.032;entryY=0.308;entryDx=0;entryDy=0;entryPerimeter=0;" edge="1" parent="L7G5GrOmhy04iDT3GXr1-1" source="L7G5GrOmhy04iDT3GXr1-19" target="L7G5GrOmhy04iDT3GXr1-15">
          <mxGeometry relative="1" as="geometry">
            <Array as="points" />
            <mxPoint x="340" y="140" as="targetPoint" />
            <mxPoint x="542" y="154" as="sourcePoint" />
          </mxGeometry>
        </mxCell>
        <mxCell id="L7G5GrOmhy04iDT3GXr1-17" style="edgeStyle=orthogonalEdgeStyle;rounded=0;orthogonalLoop=1;jettySize=auto;html=1;dashed=1;dashPattern=1 3;strokeColor=default;strokeWidth=2;align=center;verticalAlign=middle;fontFamily=Helvetica;fontSize=11;fontColor=default;labelBackgroundColor=default;endArrow=none;endFill=0;curved=0;" edge="1" parent="L7G5GrOmhy04iDT3GXr1-1" source="L7G5GrOmhy04iDT3GXr1-19">
          <mxGeometry relative="1" as="geometry">
            <mxPoint x="550" y="250" as="targetPoint" />
          </mxGeometry>
        </mxCell>
        <mxCell id="L7G5GrOmhy04iDT3GXr1-18" value="Cambios realizados" style="edgeStyle=orthogonalEdgeStyle;rounded=0;orthogonalLoop=1;jettySize=auto;html=1;entryX=1;entryY=1;entryDx=0;entryDy=0;dashed=1;dashPattern=8 8;strokeColor=default;align=center;verticalAlign=bottom;fontFamily=Helvetica;fontSize=11;fontColor=default;labelBackgroundColor=default;endArrow=classic;" edge="1" parent="L7G5GrOmhy04iDT3GXr1-1" source="L7G5GrOmhy04iDT3GXr1-19" target="L7G5GrOmhy04iDT3GXr1-15">
          <mxGeometry relative="1" as="geometry">
            <Array as="points">
              <mxPoint x="500" y="230" />
              <mxPoint x="500" y="230" />
            </Array>
          </mxGeometry>
        </mxCell>
        <mxCell id="L7G5GrOmhy04iDT3GXr1-19" value="" style="rounded=0;whiteSpace=wrap;html=1;" vertex="1" parent="L7G5GrOmhy04iDT3GXr1-1">
          <mxGeometry x="543" y="110" width="14" height="120" as="geometry" />
        </mxCell>
        <mxCell id="L7G5GrOmhy04iDT3GXr1-20" value="Realiza los cambios" style="edgeStyle=orthogonalEdgeStyle;rounded=0;orthogonalLoop=1;jettySize=auto;align=center;verticalAlign=bottom;entryX=0.106;entryY=0.835;entryDx=0;entryDy=0;entryPerimeter=0;" edge="1" parent="L7G5GrOmhy04iDT3GXr1-1" target="L7G5GrOmhy04iDT3GXr1-19">
          <mxGeometry relative="1" as="geometry">
            <mxPoint x="337" y="210" as="sourcePoint" />
            <Array as="points" />
            <mxPoint x="540" y="210" as="targetPoint" />
          </mxGeometry>
        </mxCell>
      </root>
    </mxGraphModel>
  </diagram>
</mxfile>
